Coordinates
version=1
nRows=38
nColumns=12
inDegrees=yes

Units are S.I. units (second, meters, Newtons, ...)
Angles are in degrees

endheader
time	SC_y	SC_z	SC_x	AC_y	AC_z	AC_x	GH_y	GH_z	GH_yy	EL_x	PS_y
       0.0               -51.6          21.37          6.564           34.9         -10.91          16.27          15.87          11.08          24.92          82.89          99.78
   0.03051              -51.59          21.37          6.571           34.9         -10.91          16.27          15.88          11.07          24.92           82.9          99.79
   0.06103              -51.59          21.38          6.579           34.9         -10.91          16.27          15.89          11.07          24.92           82.9           99.8
   0.09154              -51.58          21.38          6.588          34.91          -10.9          16.26          15.91          11.07          24.91           82.9          99.81
    0.1221              -51.58          21.38          6.597          34.91          -10.9          16.26          15.92          11.07          24.91          82.91          99.82
    0.1526              -51.57          21.38          6.606          34.91          -10.9          16.25          15.94          11.07           24.9          82.92          99.83
    0.1831              -51.57          21.38          6.616          34.91          -10.9          16.25          15.95          11.07          24.89          82.92          99.84
    0.2136              -51.56          21.39          6.627          34.92          -10.9          16.24          15.97          11.07          24.89          82.93          99.85
    0.2441              -51.55          21.39          6.639          34.92         -10.89          16.23          15.99          11.07          24.88          82.93          99.87
    0.2746              -51.55          21.39          6.651          34.92         -10.89          16.23          16.01          11.07          24.87          82.94          99.88
    0.3051              -51.54           21.4          6.665          34.92         -10.89          16.22          16.03          11.07          24.87          82.95           99.9
    0.3357              -51.53           21.4          6.679          34.93         -10.89          16.21          16.05          11.06          24.86          82.96          99.91
    0.3662              -51.52           21.4          6.695          34.93         -10.88           16.2          16.08          11.06          24.85          82.96          99.93
    0.3967              -51.51          21.41          6.711          34.94         -10.88          16.19          16.11          11.06          24.84          82.97          99.95
    0.4272               -51.5          21.41          6.729          34.94         -10.88          16.18          16.13          11.06          24.83          82.98          99.97
    0.4577              -51.49          21.42          6.749          34.94         -10.87          16.17          16.17          11.06          24.82          82.99          99.99
    0.4882              -51.48          21.42          6.771          34.95         -10.87          16.16           16.2          11.06          24.81          83.01          100.0
    0.5188              -51.46          21.43          6.794          34.96         -10.86          16.15          16.24          11.05          24.79          83.02          100.0
    0.5493              -51.45          21.44          6.819          34.96         -10.86          16.13          16.28          11.05          24.78          83.03          100.1
    0.5798              -51.43          21.44          6.847          34.97         -10.85          16.12          16.32          11.05          24.76          83.05          100.1
    0.6103              -51.41          21.45          6.878          34.98         -10.85           16.1          16.37          11.05          24.75          83.07          100.1
    0.6408               -51.4          21.46          6.911          34.98         -10.84          16.08          16.42          11.04          24.73          83.08          100.2
    0.6713              -51.37          21.47          6.949          34.99         -10.83          16.06          16.48          11.04          24.71          83.11          100.2
    0.7018              -51.35          21.48           6.99           35.0         -10.83          16.04          16.55          11.04          24.68          83.13          100.3
    0.7324              -51.32          21.49          7.036          35.01         -10.82          16.02          16.62          11.03          24.66          83.15          100.3
    0.7629              -51.29           21.5          7.087          35.03         -10.81          15.99           16.7          11.03          24.63          83.18          100.4
    0.7934              -51.26          21.52          7.144          35.04          -10.8          15.96           16.8          11.02           24.6          83.21          100.5
    0.8239              -51.22          21.53          7.208          35.05         -10.78          15.92           16.9          11.02          24.56          83.25          100.5
    0.8544              -51.18          21.55          7.281          35.07         -10.77          15.88          17.01          11.01          24.52          83.29          100.6
    0.8849              -51.13          21.57          7.364          35.09         -10.75          15.84          17.15           11.0          24.47          83.34          100.7
    0.9154              -51.08           21.6          7.458          35.11         -10.74          15.79           17.3          10.99          24.42          83.39          100.8
     0.946              -51.02          21.62          7.566          35.14         -10.71          15.73          17.47          10.98          24.36          83.45          101.0
    0.9765              -50.94          21.65          7.691          35.17         -10.69          15.66          17.67          10.97          24.29          83.52          101.1
     1.007              -50.86          21.69          7.837           35.2         -10.66          15.58           17.9          10.96          24.21           83.6          101.3
     1.038              -50.76          21.73          8.006          35.24         -10.63          15.49          18.17          10.94          24.11          83.69          101.5
     1.068              -50.65          21.78          8.207          35.29         -10.59          15.38          18.49          10.92           24.0           83.8          101.7
     1.099              -50.51          21.84          8.445          35.35         -10.54          15.25          18.87           10.9          23.87          83.94          102.0
     1.129              -50.34          21.91           8.73          35.42         -10.49          15.09          19.33          10.88          23.71          84.09          102.3
